<?xml version="1.0" encoding="UTF-8" standalone="no" ?>
<!DOCTYPE svg PUBLIC "-//W3C//DTD SVG 1.1//EN" "http://www.w3.org/Graphics/SVG/1.1/DTD/svg11.dtd">
<svg xmlns="http://www.w3.org/2000/svg" xmlns:xlink="http://www.w3.org/1999/xlink" version="1.1" width="1080" height="1080" viewBox="0 0 1080 1080" xml:space="preserve">
<desc>Created with Fabric.js 5.2.4</desc>
<defs>
</defs>
<g transform="matrix(1 0 0 1 540 540)" id="08e4b580-aea3-42cf-882e-f80ac505be5b"  >
<rect style="stroke: none; stroke-width: 1; stroke-dasharray: none; stroke-linecap: butt; stroke-dashoffset: 0; stroke-linejoin: miter; stroke-miterlimit: 4; fill: rgb(255,255,255); fill-rule: nonzero; opacity: 1; visibility: hidden;" vector-effect="non-scaling-stroke"  x="-540" y="-540" rx="0" ry="0" width="1080" height="1080" />
</g>
<g transform="matrix(1 0 0 1 540 540)" id="01bae0a8-32d1-45dc-80af-0c0ba101dba2"  >
</g>
<g transform="matrix(1 0 0 1 540 540)"  >
<g style="" vector-effect="non-scaling-stroke"   >
		<g transform="matrix(1 0 0 1 -172.56 0)"  >
<path style="stroke: none; stroke-width: 1; stroke-dasharray: none; stroke-linecap: butt; stroke-dashoffset: 0; stroke-linejoin: miter; stroke-miterlimit: 4; fill: rgb(213,252,232); fill-rule: evenodd; opacity: 1;" vector-effect="non-scaling-stroke"  transform=" translate(-577.44, -750)" d="M 416.5 548.6 C 413.2 539.7 415.4 529.8000000000001 422.1 523.1 L 512.9 432.3 C 519.6 425.6 529.5 423.40000000000003 538.4 426.7 L 732 497.8 C 736.8 499.5 739.9 504.1 739.9 509.1 L 739.9 551.5 C 739.9 554.7 738.6 557.8 736.4 560 L 689.3 607.1 C 686 610.4 681 611.5 676.5999999999999 609.9 L 624.5999999999999 590.6999999999999 L 567.3999999999999 569.5999999999999 C 562.5999999999999 567.8 557.8999999999999 572.4999999999999 559.5999999999999 577.3999999999999 L 599.8999999999999 686.5999999999999 C 601.4999999999999 690.9999999999999 600.3999999999999 695.9999999999999 597.0999999999999 699.3 L 555.1999999999999 741.1999999999999 C 550.4999999999999 745.9 550.4999999999999 753.5999999999999 555.1999999999999 758.3 L 597.3 800.4 C 600.5999999999999 803.6999999999999 601.6999999999999 808.6999999999999 600.0999999999999 813.1 L 559.8 922.3000000000001 C 558 927.1 562.6999999999999 931.8000000000001 567.5999999999999 930.1 L 676.7 890 C 681.1 888.4 686.1 889.5 689.4000000000001 892.8 L 736.3000000000001 939.6999999999999 C 738.6 941.9999999999999 739.8000000000001 944.9999999999999 739.8000000000001 948.1999999999999 L 739.8000000000001 990.5999999999999 C 739.8000000000001 995.6999999999999 736.6 1000.1999999999999 731.9000000000001 1001.8999999999999 L 538.5000000000001 1073.3 C 529.6000000000001 1076.6 519.7000000000002 1074.3999999999999 513.0000000000001 1067.7 L 422.2000000000001 976.9000000000001 C 415.5000000000001 970.2 413.3000000000001 960.3000000000001 416.6000000000001 951.4000000000001 L 487.70000000000005 758.6000000000001 C 489.70000000000005 753.2000000000002 489.70000000000005 747.3000000000002 487.70000000000005 741.9000000000001 L 416.5 548.6 z" stroke-linecap="round" />
</g>
		<g transform="matrix(1 0 0 1 172.56 0)"  >
<path style="stroke: none; stroke-width: 1; stroke-dasharray: none; stroke-linecap: butt; stroke-dashoffset: 0; stroke-linejoin: miter; stroke-miterlimit: 4; fill: rgb(213,252,232); fill-rule: evenodd; opacity: 1;" vector-effect="non-scaling-stroke"  transform=" translate(-922.56, -750)" d="M 1083.5 951.4 C 1086.8 960.3 1084.6 970.1999999999999 1077.9 976.9 L 987.1000000000001 1067.7 C 980.4000000000001 1074.4 970.5000000000001 1076.6000000000001 961.6000000000001 1073.3 L 768 1002.2 C 763.2 1000.5 760.1 995.9000000000001 760.1 990.9000000000001 L 760.1 948.5000000000001 C 760.1 945.3000000000001 761.4 942.2000000000002 763.6 940.0000000000001 L 810.7 892.9000000000001 C 814 889.6000000000001 819 888.5000000000001 823.4000000000001 890.1000000000001 L 875.4000000000001 909.3000000000002 L 932.6000000000001 930.4000000000002 C 937.4000000000001 932.2000000000002 942.1000000000001 927.5000000000002 940.4000000000001 922.6000000000003 L 900.1000000000001 813.4000000000002 C 898.5000000000001 809.0000000000002 899.6000000000001 804.0000000000002 902.9000000000001 800.7000000000002 L 944.8000000000001 758.8000000000002 C 949.5000000000001 754.1000000000001 949.5000000000001 746.4000000000002 944.8000000000001 741.7000000000002 L 902.7 699.6000000000001 C 899.4000000000001 696.3000000000002 898.3000000000001 691.3000000000002 899.9000000000001 686.9000000000001 L 940.2 577.7 C 942 572.9000000000001 937.3000000000001 568.2 932.4000000000001 569.9000000000001 L 823.3 610 C 818.9 611.6 813.9 610.5 810.5999999999999 607.2 L 763.6999999999999 560.3000000000001 C 761.4 558.0000000000001 760.1999999999999 555.0000000000001 760.1999999999999 551.8000000000001 L 760.1999999999999 509.4000000000001 C 760.1999999999999 504.30000000000007 763.4 499.80000000000007 768.0999999999999 498.1000000000001 L 961.4999999999999 426.70000000000005 C 970.3999999999999 423.40000000000003 980.2999999999998 425.6 986.9999999999999 432.30000000000007 L 1077.8 523.1 C 1084.5 529.8000000000001 1086.7 539.7 1083.3999999999999 548.6 L 1012.2999999999998 741.4000000000001 C 1010.2999999999998 746.8000000000001 1010.2999999999998 752.7 1012.2999999999998 758.1000000000001 L 1083.5 951.4 L 1083.5 951.4 z" stroke-linecap="round" />
</g>
</g>
</g>
</svg>